<svg xmlns="http://www.w3.org/2000/svg" style="display:none">
  <defs>
    <!-- ============ GRADIENTS (flat-3D look) ============ -->
    <linearGradient id="g-sky" x1="0" y1="0" x2="0" y2="1"><stop offset="0" stop-color="#7EC8F5"/><stop offset="1" stop-color="#2E93D8"/></linearGradient>
    <linearGradient id="g-sky-deep" x1="0" y1="0" x2="0" y2="1"><stop offset="0" stop-color="#4FA9E6"/><stop offset="1" stop-color="#1E6FAE"/></linearGradient>
    <linearGradient id="g-sunny" x1="0" y1="0" x2="0" y2="1"><stop offset="0" stop-color="#FFD968"/><stop offset="1" stop-color="#F5AC17"/></linearGradient>
    <linearGradient id="g-sunny-deep" x1="0" y1="0" x2="0" y2="1"><stop offset="0" stop-color="#F7C44A"/><stop offset="1" stop-color="#DE9100"/></linearGradient>
    <linearGradient id="g-coral" x1="0" y1="0" x2="0" y2="1"><stop offset="0" stop-color="#FF8A7E"/><stop offset="1" stop-color="#F5533F"/></linearGradient>
    <linearGradient id="g-coral-deep" x1="0" y1="0" x2="0" y2="1"><stop offset="0" stop-color="#F4715F"/><stop offset="1" stop-color="#D93A26"/></linearGradient>
    <linearGradient id="g-mint" x1="0" y1="0" x2="0" y2="1"><stop offset="0" stop-color="#6FD9B0"/><stop offset="1" stop-color="#1FA87B"/></linearGradient>
    <linearGradient id="g-mint-deep" x1="0" y1="0" x2="0" y2="1"><stop offset="0" stop-color="#45C394"/><stop offset="1" stop-color="#148A60"/></linearGradient>
    <linearGradient id="g-cyan" x1="0" y1="0" x2="0" y2="1"><stop offset="0" stop-color="#5FE4EE"/><stop offset="1" stop-color="#0BB6C4"/></linearGradient>
    <linearGradient id="g-cyan-deep" x1="0" y1="0" x2="0" y2="1"><stop offset="0" stop-color="#2CCEDB"/><stop offset="1" stop-color="#0899A6"/></linearGradient>
    <linearGradient id="g-lav" x1="0" y1="0" x2="0" y2="1"><stop offset="0" stop-color="#B3A7FB"/><stop offset="1" stop-color="#7B68EE"/></linearGradient>
    <linearGradient id="g-lav-deep" x1="0" y1="0" x2="0" y2="1"><stop offset="0" stop-color="#9483F5"/><stop offset="1" stop-color="#6150DB"/></linearGradient>
    <linearGradient id="g-navy" x1="0" y1="0" x2="0" y2="1"><stop offset="0" stop-color="#2E6E99"/><stop offset="1" stop-color="#0B4364"/></linearGradient>
    <linearGradient id="g-navy-deep" x1="0" y1="0" x2="0" y2="1"><stop offset="0" stop-color="#1B587E"/><stop offset="1" stop-color="#082F47"/></linearGradient>
    <linearGradient id="g-wa" x1="0" y1="0" x2="0" y2="1"><stop offset="0" stop-color="#4BE083"/><stop offset="1" stop-color="#1FBF5B"/></linearGradient>
    <linearGradient id="g-hero-orb" x1="0" y1="0" x2="1" y2="1"><stop offset="0" stop-color="#5FE4EE"/><stop offset="1" stop-color="#2E93D8"/></linearGradient>

    <!-- ============ SPARKLE ============ -->
    <symbol id="i-spark" viewBox="0 0 100 100">
      <path d="M50 6 L59 41 L94 50 L59 59 L50 94 L41 59 L6 50 L41 41 Z" fill="url(#g-sunny)"/>
      <circle cx="50" cy="50" r="12" fill="#FFF7DC" opacity=".85"/>
    </symbol>

    <symbol id="i-spark-sm" viewBox="0 0 100 100">
      <path d="M50 14 L57 43 L86 50 L57 57 L50 86 L43 57 L14 50 L43 43 Z" fill="url(#g-sunny)"/>
    </symbol>

    <!-- ============ BUBBLES ============ -->
    <symbol id="i-bubble" viewBox="0 0 100 100">
      <circle cx="50" cy="50" r="34" fill="url(#g-hero-orb)" opacity=".5"/>
      <ellipse cx="38" cy="38" rx="9" ry="6" fill="#FFFFFF" opacity=".7" transform="rotate(-25 38 38)"/>
      <circle cx="74" cy="26" r="7" fill="url(#g-hero-orb)" opacity=".6"/>
      <circle cx="20" cy="74" r="5" fill="url(#g-hero-orb)" opacity=".45"/>
    </symbol>

    <!-- ============ FULL HOUSE (sky) ============ -->
    <symbol id="i-house" viewBox="0 0 100 100">
      <ellipse cx="50" cy="88" rx="30" ry="6" fill="#082F47" opacity=".14"/>
      <path d="M50 14 L88 46 L82 46 L82 82 L18 82 L18 46 L12 46 Z" fill="url(#g-sky)"/>
      <path d="M50 14 L88 46 L12 46 Z" fill="url(#g-sky-deep)"/>
      <rect x="42" y="56" width="16" height="26" rx="3" fill="#FFFFFF" opacity=".92"/>
      <circle cx="50" cy="82" r="3" fill="#0B4364" opacity=".5"/>
      <ellipse cx="36" cy="30" rx="7" ry="4.5" fill="#FFFFFF" opacity=".55" transform="rotate(-20 36 30)"/>
    </symbol>

    <!-- ============ KITCHEN (sunny) — pot with steam ============ -->
    <symbol id="i-kitchen" viewBox="0 0 100 100">
      <ellipse cx="50" cy="88" rx="30" ry="6" fill="#082F47" opacity=".14"/>
      <rect x="24" y="42" width="52" height="38" rx="10" fill="url(#g-sunny)"/>
      <rect x="24" y="42" width="52" height="10" rx="5" fill="url(#g-sunny-deep)"/>
      <path d="M14 46 L34 46 L30 40 L70 40 L66 46 L86 46 L86 52 L14 52 Z" fill="url(#g-sunny-deep)"/>
      <circle cx="50" cy="38" r="6" fill="#FFF7DC"/>
      <rect x="36" y="56" width="28" height="8" rx="4" fill="#FFF7DC" opacity=".7"/>
      <path d="M36 26 Q40 20 44 26 M50 24 Q54 18 58 24" stroke="#FFFFFF" stroke-width="4" stroke-linecap="round" fill="none" opacity=".9"/>
      <circle cx="72" cy="30" r="2.5" fill="#FFD968"/>
      <ellipse cx="36" cy="48" rx="6" ry="4" fill="#FFFFFF" opacity=".5"/>
    </symbol>

    <!-- ============ BATHROOM (cyan) ============ -->
    <symbol id="i-bath" viewBox="0 0 100 100">
      <ellipse cx="50" cy="88" rx="30" ry="6" fill="#082F47" opacity=".14"/>
      <path d="M22 46 Q22 30 38 30 L62 30 Q78 30 78 46 L78 58 L22 58 Z" fill="url(#g-cyan)"/>
      <path d="M22 58 L78 58 L74 74 Q72 80 64 80 L36 80 Q28 80 26 74 Z" fill="url(#g-cyan-deep)"/>
      <path d="M28 44 L72 44 L71 52 L29 52 Z" fill="#E6F6FA" opacity=".7"/>
      <rect x="60" y="14" width="8" height="18" rx="4" fill="url(#g-navy)"/>
      <circle cx="64" cy="10" r="4" fill="url(#g-coral)"/>
      <ellipse cx="36" cy="36" rx="7" ry="4.5" fill="#FFFFFF" opacity=".6" transform="rotate(-20 36 36)"/>
    </symbol>

    <!-- ============ SOFA (coral) ============ -->
    <symbol id="i-sofa" viewBox="0 0 100 100">
      <ellipse cx="50" cy="88" rx="32" ry="6" fill="#082F47" opacity=".14"/>
      <path d="M16 44 Q16 32 26 32 L74 32 Q84 32 84 44 L84 66 L16 66 Z" fill="url(#g-coral)"/>
      <path d="M16 52 L84 52 L84 64 Q84 72 74 72 L26 72 Q16 72 16 64 Z" fill="url(#g-coral-deep)"/>
      <rect x="24" y="60" width="52" height="8" rx="4" fill="#FFE9E6"/>
      <rect x="40" y="42" width="20" height="10" rx="5" fill="#FFE9E6" opacity=".8"/>
      <ellipse cx="36" cy="38" rx="7" ry="4.5" fill="#FFFFFF" opacity=".55" transform="rotate(-20 36 38)"/>
    </symbol>

    <!-- ============ CARPET (mint) — rolled carpet ============ -->
    <symbol id="i-carpet" viewBox="0 0 100 100">
      <ellipse cx="50" cy="88" rx="30" ry="6" fill="#082F47" opacity=".14"/>
      <ellipse cx="28" cy="54" rx="12" ry="24" fill="url(#g-mint-deep)"/>
      <ellipse cx="28" cy="54" rx="7" ry="16" fill="url(#g-mint)"/>
      <ellipse cx="28" cy="54" rx="3" ry="7" fill="#E1F7EE"/>
      <rect x="28" y="30" width="44" height="48" rx="8" fill="url(#g-mint)"/>
      <path d="M34 40 L66 40 M34 50 L66 50 M34 60 L66 60 M34 70 L66 70" stroke="#E1F7EE" stroke-width="3"/>
      <rect x="72" y="34" width="12" height="40" rx="6" fill="url(#g-mint-deep)"/>
      <path d="M76 38 L80 72 M82 38 L86 72" stroke="#E1F7EE" stroke-width="2.5"/>
      <ellipse cx="40" cy="36" rx="6" ry="4" fill="#FFFFFF" opacity=".5"/>
    </symbol>

    <!-- ============ AC (sky deep) ============ -->
    <symbol id="i-ac" viewBox="0 0 100 100">
      <ellipse cx="50" cy="88" rx="30" ry="6" fill="#082F47" opacity=".14"/>
      <rect x="14" y="26" width="72" height="46" rx="8" fill="#F4F8FB"/>
      <rect x="14" y="26" width="72" height="14" rx="7" fill="url(#g-sky-deep)"/>
      <path d="M22 52 L78 52" stroke="#D7E6F1" stroke-width="3"/>
      <rect x="22" y="56" width="8" height="10" rx="2" fill="#C9DCEA"/>
      <rect x="34" y="56" width="8" height="10" rx="2" fill="#C9DCEA"/>
      <rect x="46" y="56" width="8" height="10" rx="2" fill="#C9DCEA"/>
      <rect x="58" y="56" width="8" height="10" rx="2" fill="#C9DCEA"/>
      <rect x="70" y="56" width="8" height="10" rx="2" fill="#C9DCEA"/>
      <ellipse cx="30" cy="32" rx="7" ry="4" fill="#FFFFFF" opacity=".7"/>
      <path d="M62 84 L62 78 M58 86 L58 80 M66 86 L66 80" stroke="#0B4364" stroke-width="3" stroke-linecap="round" opacity=".45"/>
    </symbol>

    <!-- ============ COMMERCIAL (navy) ============ -->
    <symbol id="i-building" viewBox="0 0 100 100">
      <ellipse cx="50" cy="88" rx="30" ry="6" fill="#082F47" opacity=".14"/>
      <rect x="28" y="18" width="44" height="66" rx="6" fill="url(#g-navy)"/>
      <rect x="36" y="26" width="10" height="9" rx="2" fill="#9FD4F0"/>
      <rect x="54" y="26" width="10" height="9" rx="2" fill="#9FD4F0"/>
      <rect x="36" y="42" width="10" height="9" rx="2" fill="#9FD4F0"/>
      <rect x="54" y="42" width="10" height="9" rx="2" fill="#9FD4F0"/>
      <rect x="36" y="58" width="10" height="9" rx="2" fill="#9FD4F0"/>
      <rect x="54" y="58" width="10" height="9" rx="2" fill="#9FD4F0"/>
      <rect x="44" y="72" width="12" height="12" rx="2" fill="#9FD4F0"/>
      <ellipse cx="38" cy="26" rx="6" ry="4" fill="#FFFFFF" opacity=".5"/>
    </symbol>

    <!-- ============ CHIMNEY (sunny deep) ============ -->
    <symbol id="i-chimney" viewBox="0 0 100 100">
      <ellipse cx="50" cy="88" rx="30" ry="6" fill="#082F47" opacity=".14"/>
      <rect x="30" y="20" width="40" height="62" rx="6" fill="url(#g-sunny-deep)"/>
      <rect x="22" y="14" width="56" height="14" rx="7" fill="url(#g-sunny)"/>
      <rect x="36" y="34" width="28" height="10" rx="4" fill="#FFF4D9"/>
      <rect x="36" y="50" width="28" height="10" rx="4" fill="#FFF4D9"/>
      <rect x="36" y="66" width="28" height="10" rx="4" fill="#FFF4D9"/>
      <ellipse cx="36" cy="20" rx="7" ry="4" fill="#FFFFFF" opacity=".6"/>
    </symbol>

    <!-- ============ FLOOR RENEW (lav) ============ -->
    <symbol id="i-floor" viewBox="0 0 100 100">
      <ellipse cx="50" cy="88" rx="30" ry="6" fill="#082F47" opacity=".14"/>
      <rect x="14" y="26" width="72" height="52" rx="8" fill="url(#g-lav)"/>
      <path d="M22 36 L78 36 M22 46 L78 46 M22 56 L78 56 M22 66 L78 66" stroke="#EFEBFE" stroke-width="3"/>
      <path d="M30 70 L48 30" stroke="#EFEBFE" stroke-width="3" opacity=".6"/>
      <ellipse cx="36" cy="34" rx="7" ry="4" fill="#FFFFFF" opacity=".6"/>
    </symbol>

    <!-- ============ BROOM (coral) ============ -->
    <symbol id="i-broom" viewBox="0 0 100 100">
      <ellipse cx="50" cy="88" rx="30" ry="6" fill="#082F47" opacity=".14"/>
      <rect x="46" y="14" width="8" height="34" rx="4" fill="url(#g-navy)"/>
      <path d="M40 50 L60 50 L68 70 Q50 78 32 70 Z" fill="url(#g-sunny-deep)"/>
      <path d="M38 56 L30 72 M42 58 L36 76 M50 60 L50 78 M58 58 L64 76 M62 56 L70 72" stroke="#DE9100" stroke-width="4" stroke-linecap="round"/>
      <ellipse cx="52" cy="22" rx="6" ry="4" fill="#FFFFFF" opacity=".6" transform="rotate(-25 52 22)"/>
    </symbol>

    <!-- ============ SPRAY (cyan) ============ -->
    <symbol id="i-spray" viewBox="0 0 100 100">
      <ellipse cx="50" cy="88" rx="30" ry="6" fill="#082F47" opacity=".14"/>
      <rect x="38" y="26" width="24" height="48" rx="10" fill="url(#g-cyan)"/>
      <rect x="38" y="26" width="24" height="16" rx="8" fill="url(#g-cyan-deep)"/>
      <rect x="32" y="70" width="36" height="8" rx="4" fill="#0B4364" opacity=".85"/>
      <path d="M50 26 L50 14 M50 14 L44 18 M50 14 L56 18" stroke="#0B4364" stroke-width="4" stroke-linecap="round"/>
      <circle cx="30" cy="44" r="4" fill="#5FE4EE"/>
      <circle cx="26" cy="56" r="3" fill="#5FE4EE"/>
      <circle cx="34" cy="62" r="2.5" fill="#5FE4EE"/>
      <ellipse cx="44" cy="32" rx="6" ry="4" fill="#FFFFFF" opacity=".6"/>
    </symbol>

    <!-- ============ SHIELD/TRUST (mint) ============ -->
    <symbol id="i-shield" viewBox="0 0 100 100">
      <path d="M50 8 L86 24 L86 52 Q86 76 50 92 Q14 76 14 52 L14 24 Z" fill="url(#g-mint)"/>
      <path d="M50 8 L86 24 L86 30 L14 30 L14 24 Z" fill="#FFFFFF" opacity=".35"/>
      <path d="M50 30 L50 74 M50 74 Q44 66 36 62 M50 74 Q56 66 64 62" stroke="#FFFFFF" stroke-width="5" stroke-linecap="round" fill="none"/>
    </symbol>

    <!-- ============ CALENDAR (sunny) ============ -->
    <symbol id="i-calendar" viewBox="0 0 100 100">
      <ellipse cx="50" cy="88" rx="30" ry="6" fill="#082F47" opacity=".14"/>
      <rect x="20" y="26" width="60" height="56" rx="10" fill="#F7FAFD"/>
      <rect x="20" y="26" width="60" height="56" rx="10" fill="none" stroke="#D7E6F1" stroke-width="2"/>
      <rect x="20" y="26" width="60" height="16" rx="8" fill="url(#g-coral)"/>
      <rect x="26" y="18" width="6" height="14" rx="3" fill="#0B4364" opacity=".8"/>
      <rect x="68" y="18" width="6" height="14" rx="3" fill="#0B4364" opacity=".8"/>
      <rect x="30" y="52" width="18" height="12" rx="4" fill="url(#g-sunny)"/>
      <circle cx="60" cy="58" r="7" fill="url(#g-cyan)"/>
      <ellipse cx="34" cy="32" rx="6" ry="3.5" fill="#FFFFFF" opacity=".7"/>
    </symbol>

    <!-- ============ WHATSAPP (for CTA chips) ============ -->
    <symbol id="i-wa" viewBox="0 0 100 100">
      <circle cx="50" cy="50" r="42" fill="url(#g-wa)"/>
      <path d="M50 22a28 28 0 0 0-24 42l-4 14 14.5-4.2A28 28 0 1 0 50 22zm-9.5 17.5c1-.4 2-.3 2.8 1l2.6 4.4c.4.7.3 1.5-.2 2.1l-1.5 1.9c-.5.6-.6 1.4-.2 2.1 1.2 2.2 4.4 6 8 7.6.7.4 1.5.3 2.1-.3l2-2.1c.6-.6 1.4-.7 2.1-.3l4.6 2.6c.8.4 1.2 1.3 1 2.2-.6 2.9-3.3 4.7-6 4.4-5.7-.7-10.8-4.4-13.5-7.8-2.9-3.6-4.6-8-4.6-12.4 0-2.3 1.2-3.5 2.3-4.4z" fill="#FFFFFF"/>
    </symbol>

    <!-- ============ HERO SCENE (composed) ============ -->
    <symbol id="i-hero-scene" viewBox="0 0 320 300">
      <!-- ground shadow -->
      <ellipse cx="160" cy="262" rx="118" ry="14" fill="#082F47" opacity=".18"/>
      <!-- outer glow orbs -->
      <circle cx="160" cy="150" r="98" fill="url(#g-hero-orb)" opacity=".22"/>
      <circle cx="160" cy="150" r="82" fill="url(#g-hero-orb)" opacity=".5"/>
      <circle cx="160" cy="150" r="66" fill="#FFFFFF" opacity=".95"/>
      <!-- house inside -->
      <path d="M160 108 L208 144 L196 144 L196 186 L124 186 L124 144 L112 144 Z" fill="url(#g-sky)"/>
      <path d="M160 108 L208 144 L112 144 Z" fill="url(#g-sky-deep)"/>
      <rect x="148" y="158" width="24" height="28" rx="4" fill="#FFFFFF"/>
      <circle cx="160" cy="186" r="4" fill="#0B4364" opacity=".45"/>
      <ellipse cx="146" cy="128" rx="9" ry="6" fill="#FFFFFF" opacity=".6" transform="rotate(-20 146 128)"/>
      <!-- sparkles (outer ring, consistent spacing) -->
      <path d="M52 50 L56 66 L72 70 L56 74 L52 90 L48 74 L32 70 L56 66 Z" fill="url(#g-sunny)"/>
      <circle cx="52" cy="70" r="5" fill="#FFF7DC" opacity=".85"/>
      <path d="M270 34 L272.5 45 L284 47.5 L272.5 50 L270 61 L267.5 50 L256 47.5 L267.5 45 Z" fill="url(#g-sunny)"/>
      <path d="M290 112 L292 120 L300 122 L292 124 L290 132 L288 124 L280 122 L288 120 Z" fill="url(#g-coral)"/>
      <path d="M30 160 L31.5 167 L39 168.5 L31.5 170 L30 177 L28.5 170 L21 168.5 L28.5 167 Z" fill="url(#g-cyan)"/>
      <!-- floating bubbles -->
      <circle cx="78" cy="198" r="13" fill="#5FE4EE" opacity=".55"/>
      <ellipse cx="73" cy="193" rx="4" ry="3" fill="#FFFFFF" opacity=".8" transform="rotate(-25 73 193)"/>
      <circle cx="244" cy="186" r="9" fill="#7EC8F5" opacity=".55"/>
      <ellipse cx="241" cy="183" rx="3" ry="2.2" fill="#FFFFFF" opacity=".8" transform="rotate(-25 241 183)"/>
      <circle cx="252" cy="120" r="6" fill="#B3A7FB" opacity=".6"/>
      <circle cx="58" cy="120" r="5" fill="#FFD968" opacity=".7"/>
      <!-- floating spray bottle (bottom right, fully in front) -->
      <g transform="translate(250 222) rotate(14)">
        <rect x="-11" y="-26" width="22" height="34" rx="9" fill="url(#g-coral)"/>
        <rect x="-11" y="-26" width="22" height="12" rx="6" fill="url(#g-coral-deep)"/>
        <path d="M0 -26 L0 -36 M0 -36 L-5 -32 M0 -36 L5 -32" stroke="#0B4364" stroke-width="3.5" stroke-linecap="round"/>
        <ellipse cx="-5" cy="-20" rx="5" ry="3" fill="#FFFFFF" opacity=".6"/>
      </g>
      <!-- floating broom (top left, fully in front) -->
      <g transform="translate(64 96) rotate(-16)">
        <rect x="-4" y="-40" width="8" height="30" rx="4" fill="url(#g-navy)"/>
        <path d="M-10 -10 L10 -10 L16 8 Q0 14 -16 8 Z" fill="url(#g-sunny-deep)"/>
        <path d="M-12 -4 L-18 10 M-8 -2 L-12 14 M0 0 L0 16 M8 -2 L12 14 M12 -4 L18 10" stroke="#DE9100" stroke-width="3.5" stroke-linecap="round"/>
        <ellipse cx="-2" cy="-32" rx="4" ry="2.5" fill="#FFFFFF" opacity=".5" transform="rotate(-16 -2 -32)"/>
      </g>
      <!-- star badge -->
      <g transform="translate(150 36)">
        <circle cx="0" cy="0" r="26" fill="url(#g-coral)"/>
        <path d="M0 -14 L3.4 -4.6 L13 -4.6 L5.3 1.4 L8 11 L0 5.6 L-8 11 L-5.3 1.4 L-13 -4.6 L-3.4 -4.6 Z" fill="#FFFFFF"/>
      </g>
    </symbol>
  </defs>
</svg>
